# xmcd
# 
# Track frame offsets:
#     150
#     12599
#     25429
#     35446
#     48882
#     60403
#     72699
#     84430
#     97456
#     110468
#     122834
#     134271
#     147323
#     161031
#     172405
#     184274
#     195997
#     209074
#     220919
#     232571
#     242647
#     253993
#     265215
#     281085
# 
# Disc length: 3896
# 
# Revision: 4
# Processed by: cddbd v1.5.2PL0 Copyright (c) Steve Scherf et al.
# Submitted via: fre:ac v1.0.27
# 
DISCID=770f3618
DTITLE=John Lee Hooker - The Definitive Collection
DYEAR=2000
DGENRE=Blues
TTITLE0=Trouble Blues
TTITLE1=Baby Lee
TTITLE2=Dimples
TTITLE3=Every Night
TTITLE4=I Love You Honey
TTITLE5=I'm In The Mood
TTITLE6=Little Wheel
TTITLE7=I See You When You're Weak
TTITLE8=I'm So Excited
TTITLE9=Crawlin' Kingsnake
TTITLE10=Wheel And Deal
TTITLE11=I'm Going Upstairs
TTITLE12=The Road Is So Rough
TTITLE13=Boom Boom
TTITLE14=I'm Mad Again
TTITLE15=Boogie Chillun
TTITLE16=Don't Look Back
TTITLE17=Mama You Got A Daughter
TTITLE18=Solid Sender
TTITLE19=Want Ad Blues
TTITLE20=Hard Headed Woman
TTITLE21=This Is Hip
TTITLE22=It Serves Me Right To Suffer
TTITLE23=She's Long, She's Tall
EXTD=
EXTT0=
EXTT1=
EXTT2=
EXTT3=
EXTT4=
EXTT5=
EXTT6=
EXTT7=
EXTT8=
EXTT9=
EXTT10=
EXTT11=
EXTT12=
EXTT13=
EXTT14=
EXTT15=
EXTT16=
EXTT17=
EXTT18=
EXTT19=
EXTT20=
EXTT21=
EXTT22=
EXTT23=
PLAYORDER=
